<svg width="68" height="68" viewBox="0 0 68 68" fill="none" xmlns="http://www.w3.org/2000/svg">
<path d="M34.0002 11.3334C37.0059 11.3334 39.8886 12.5274 42.014 14.6528C44.1395 16.7782 45.3335 19.6609 45.3335 22.6667C45.3335 25.6725 44.1395 28.5552 42.014 30.6806C39.8886 32.806 37.0059 34 34.0002 34C30.9944 34 28.1117 32.806 25.9863 30.6806C23.8609 28.5552 22.6668 25.6725 22.6668 22.6667C22.6668 19.6609 23.8609 16.7782 25.9863 14.6528C28.1117 12.5274 30.9944 11.3334 34.0002 11.3334ZM34.0002 39.6667C46.5235 39.6667 56.6668 44.7384 56.6668 51V56.6667H11.3335V51C11.3335 44.7384 21.4768 39.6667 34.0002 39.6667Z" fill="black"/>
</svg>
