<svg width="108" height="108" viewBox="0 0 108 108" fill="none" xmlns="http://www.w3.org/2000/svg">
<path d="M54 10.125C45.3224 10.125 36.8396 12.6982 29.6244 17.5193C22.4092 22.3403 16.7856 29.1927 13.4648 37.2098C10.144 45.2269 9.27514 54.0487 10.9681 62.5596C12.661 71.0705 16.8397 78.8883 22.9757 85.0243C29.1117 91.1603 36.9295 95.339 45.4404 97.032C53.9514 98.7249 62.7731 97.856 70.7903 94.5352C78.8074 91.2144 85.6597 85.5909 90.4808 78.3756C95.3018 71.1604 97.875 62.6777 97.875 54C97.8627 42.3674 93.2363 31.2148 85.0108 22.9893C76.7853 14.7638 65.6326 10.1373 54 10.125ZM54 81C52.9988 81 52.02 80.7031 51.1875 80.1468C50.3549 79.5905 49.7061 78.7999 49.3229 77.8748C48.9397 76.9498 48.8395 75.9319 49.0348 74.9499C49.2301 73.9678 49.7123 73.0658 50.4203 72.3578C51.1283 71.6498 52.0303 71.1676 53.0124 70.9723C53.9944 70.7769 55.0123 70.8772 55.9374 71.2604C56.8624 71.6435 57.6531 72.2924 58.2093 73.1249C58.7656 73.9575 59.0625 74.9362 59.0625 75.9375C59.0625 77.2802 58.5292 78.5678 57.5798 79.5172C56.6303 80.4666 55.3427 81 54 81ZM57.375 60.4463V60.75C57.375 61.6451 57.0194 62.5036 56.3865 63.1365C55.7536 63.7694 54.8951 64.125 54 64.125C53.1049 64.125 52.2465 63.7694 51.6135 63.1365C50.9806 62.5036 50.625 61.6451 50.625 60.75V57.375C50.625 56.4799 50.9806 55.6215 51.6135 54.9885C52.2465 54.3556 53.1049 54 54 54C59.5814 54 64.125 50.2031 64.125 45.5625C64.125 40.9219 59.5814 37.125 54 37.125C48.4186 37.125 43.875 40.9219 43.875 45.5625V47.25C43.875 48.1451 43.5194 49.0036 42.8865 49.6365C42.2536 50.2694 41.3951 50.625 40.5 50.625C39.6049 50.625 38.7465 50.2694 38.1135 49.6365C37.4806 49.0036 37.125 48.1451 37.125 47.25V45.5625C37.125 37.1883 44.6935 30.375 54 30.375C63.3066 30.375 70.875 37.1883 70.875 45.5625C70.875 52.8947 65.07 59.033 57.375 60.4463Z" fill="black"/>
</svg>
